<?xml version="1.0" encoding="UTF-8" standalone="no"?>
<svg width="100px" height="41px" viewBox="0 0 100 41" version="1.1" xmlns="http://www.w3.org/2000/svg" xmlns:xlink="http://www.w3.org/1999/xlink">
    <!-- Generator: Sketch 47.1 (45422) - http://www.bohemiancoding.com/sketch -->
    <title>ic-cloud</title>
    <desc>Created with Sketch.</desc>
    <defs>
        <linearGradient x1="56.4310372%" y1="-12.6190186%" x2="56.4310372%" y2="90.9637451%" id="linearGradient-1">
            <stop stop-color="#36D4ED" offset="0%"></stop>
            <stop stop-color="#FFFFFF" stop-opacity="0" offset="100%"></stop>
        </linearGradient>
        <linearGradient x1="100%" y1="50%" x2="6.18963596%" y2="50%" id="linearGradient-2">
            <stop stop-color="#73CF45" offset="0%"></stop>
            <stop stop-color="#04AA51" offset="100%"></stop>
        </linearGradient>
        <linearGradient x1="-2.48949813e-15%" y1="50%" x2="100%" y2="50%" id="linearGradient-3">
            <stop stop-color="#27A0B6" offset="0%"></stop>
            <stop stop-color="#36D4ED" offset="100%"></stop>
        </linearGradient>
    </defs>
    <g id="FEATURES-1026" stroke="none" stroke-width="1" fill="none" fill-rule="evenodd">
        <g id="10-22-Product-Page-" transform="translate(-387.000000, -3006.000000)">
            <g id="ic-cloud" transform="translate(387.000000, 3006.000000)">
                <path d="M82.0586961,16.0394243 C79.282423,6.76180243 70.6808633,0 60.5,0 C50.0368067,0 41.2417242,7.1420316 38.7238638,16.8169836 C37.2480951,16.2881085 35.6576932,16 34,16 C27.9823658,16 22.8514841,19.7966392 20.8720555,25.1252171 C20.4272272,25.0429814 19.968633,25 19.5,25 C15.3578644,25 12,28.3578644 12,32.5 C12,36.6421356 15.3578644,40 19.5,40 C20.8724527,40 22.1588036,39.6313542 23.2654347,38.9876805 C25.8335754,42.051725 29.6892657,44 34,44 C38.423214,44 42.3673273,41.9487261 44.9329516,38.7455667 C48.9747241,42.6195581 54.4593711,45 60.5,45 C65.0378769,45 69.2619907,43.6566206 72.796346,41.3458572 C75.1016584,43.015623 77.9358724,44 81,44 C88.7319865,44 95,37.7319865 95,30 C95,22.6241756 89.2961396,16.5805591 82.0586977,16.0394297 Z" id="Combined-Shape" fill="url(#linearGradient-1)"></path>
                <path d="M80.2,20.1 C80.2,20 80.2,20 80.2,20.1 C80.6,20 81,20 81.4,20 C86.3,20 90.3,24 90.3,28.9 C90.3,29.8 90.2,30.7 89.9,31.5 L87,31.5 C86.4,31.5 86,31.9 86,32.5 C86,33.1 86.4,33.5 87,33.5 L90.6,33.5 C90.6,33.5 90.6,33.5 90.6,33.5 C90.6,33.5 90.6,33.5 90.6,33.5 L94.6,33.5 C95.2,33.5 95.6,33.1 95.6,32.5 C95.6,31.9 95.2,31.5 94.6,31.5 L92,31.5 C92.2,30.6 92.3,29.8 92.3,28.9 C92.3,22.9 87.4,18 81.4,18 C81.2,18 81,18 80.8,18 C78.4,8.9 70,2.3 60.5,2.3 C50.2,2.3 41.5,9.9 39.8,19.9 C38,18.7 35.8,18.1 33.6,18.1 C28.2,18.1 23.6,21.8 22.4,26.9 C21.9,26.8 21.4,26.7 20.9,26.7 C17.8,26.7 15.1,28.7 14.2,31.6 L1.1,31.6 C0.5,31.6 0.1,32 0.1,32.6 C0.1,33.2 0.5,33.6 1.1,33.6 L25.4,33.6 C26,33.6 26.4,33.2 26.4,32.6 C26.4,32 26,31.6 25.4,31.6 L16.5,31.6 C17.3,29.9 19.1,28.7 21.1,28.7 C21.8,28.7 22.4,28.8 23,29.1 C23,29.1 23.1,29.1 23.1,29.1 C23.1,29.1 23.2,29.1 23.2,29.1 C23.2,29.1 23.3,29.1 23.3,29.1 C23.3,29.1 23.3,29.1 23.3,29.1 C23.3,29.1 23.4,29.1 23.4,29.1 C23.5,29.1 23.6,29.1 23.6,29.1 C23.6,29.1 23.7,29 23.7,29 C23.8,29 23.8,28.9 23.9,28.9 C23.9,28.9 24,28.8 24,28.8 C24,28.7 24.1,28.7 24.1,28.6 C24.1,28.6 24.1,28.6 24.1,28.5 C24.1,28.5 24.1,28.4 24.1,28.4 C24.1,28.4 24.1,28.3 24.1,28.3 C24.7,23.6 28.7,20.1 33.5,20.1 C35.8,20.1 38.1,21 39.8,22.5 C39.8,22.5 39.9,22.5 39.9,22.6 C40,22.6 40,22.7 40.1,22.7 C40.2,22.7 40.2,22.7 40.3,22.7 C40.3,22.7 40.4,22.7 40.4,22.7 C40.4,22.7 40.5,22.7 40.5,22.7 C40.5,22.7 40.5,22.7 40.5,22.7 C40.5,22.7 40.6,22.7 40.6,22.7 C40.7,22.7 40.8,22.7 40.8,22.6 C40.8,22.6 40.9,22.6 40.9,22.5 C41,22.5 41,22.4 41.1,22.4 C41.1,22.4 41.1,22.4 41.1,22.4 C41.1,22.4 41.1,22.3 41.2,22.3 C41.2,22.2 41.3,22.2 41.3,22.1 C41.3,22 41.3,22 41.3,21.9 C41.3,21.9 41.3,21.8 41.3,21.8 C42,12 50.3,4.3 60.2,4.3 C68.7,4.3 76.3,10.1 78.5,18.3 C77.6,18.5 76.7,18.9 75.9,19.3 C75.4,19.6 75.2,20.2 75.5,20.7 C75.8,21.2 76.4,21.4 76.9,21.1 C78.1,20.5 79.1,20.2 80.2,20.1 C80.2,20 80.2,20.1 80.2,20.1 Z" id="Shape" fill="url(#linearGradient-2)" fill-rule="nonzero"></path>
                <path d="M66,37.7 L15.7,37.7 C15.1,37.7 14.7,38.1 14.7,38.7 C14.7,39.3 15.1,39.7 15.7,39.7 L66,39.7 C66.6,39.7 67,39.3 67,38.7 C67,38.1 66.6,37.7 66,37.7 Z" id="Shape" fill="url(#linearGradient-3)" fill-rule="nonzero"></path>
                <path d="M98.9,37.7 L80.7,37.7 C80.1,37.7 79.7,38.1 79.7,38.7 C79.7,39.3 80.1,39.7 80.7,39.7 L98.9,39.7 C99.5,39.7 99.9,39.3 99.9,38.7 C99.9,38.1 99.5,37.7 98.9,37.7 Z" id="Shape" fill="url(#linearGradient-3)" fill-rule="nonzero"></path>
            </g>
        </g>
    </g>
</svg>